PathFileType	4	(X/Y/Z)	Kaydara	
DataRate	CameraRate	NumFrames	NumMarkers	Units	OrigDataRate	OrigDataStartFrame	OrigNumFrames	
60.00	60.00	4	74	mm	60.00	813	195	
Frame#	Time	Y_rasi			Y_rpsi			Y_lpsi			Y_fneck			Y_bneck			Y_fhead			Y_rhead			Y_rshld			Y_relbtop			Y_relbext			Y_relblow			Y_rwrext			Y_rwrtop			Y_rwrlow			Y_lshld			Y_lelbext			Y_lelblow			Y_lelbtop			Y_lwrext			Y_lwrtop			Y_lwrlow			Y_rtopleg			Y_ltopleg			Y_rkneefr			Y_rkneebk			Y_rkneeis			Y_lkneefr			Y_lknssbk			Y_lkneeis			Y_rankfr			Y_rankis			Y_rankbk			Y_lankfr			Y_lankbk			Y_lankis			Y_lhead			Y_lasi			D_rpsi			D_lpsi			D_fneck			D_bneck			D_fhead			D_rhead			D_lhead			D_rshld			D_relbtop			D_relbext			D_relblow			D_rwrext			D_rwrtop			D_rwrlow			D_lshld			D_lelbext			D_lelblow			D_lelbtop			D_lwrext			D_lwrtop			D_lwrlow			D_rtopleg			D_ltopleg			D_rkneefr			D_rkneebk			D_rkneeis			D_lkneefr			D_lknssbk			D_lkneeis			D_rankfr			D_rankis			D_rankbk			D_lankfr			D_lankbk			D_lankis			D_lasi			D_rasi			
		X1	Y1	Z1	X2	Y2	Z2	X3	Y3	Z3	X4	Y4	Z4	X5	Y5	Z5	X6	Y6	Z6	X7	Y7	Z7	X8	Y8	Z8	X9	Y9	Z9	X10	Y10	Z10	X11	Y11	Z11	X12	Y12	Z12	X13	Y13	Z13	X14	Y14	Z14	X15	Y15	Z15	X16	Y16	Z16	X17	Y17	Z17	X18	Y18	Z18	X19	Y19	Z19	X20	Y20	Z20	X21	Y21	Z21	X22	Y22	Z22	X23	Y23	Z23	X24	Y24	Z24	X25	Y25	Z25	X26	Y26	Z26	X27	Y27	Z27	X28	Y28	Z28	X29	Y29	Z29	X30	Y30	Z30	X31	Y31	Z31	X32	Y32	Z32	X33	Y33	Z33	X34	Y34	Z34	X35	Y35	Z35	X36	Y36	Z36	X37	Y37	Z37	X38	Y38	Z38	X39	Y39	Z39	X40	Y40	Z40	X41	Y41	Z41	X42	Y42	Z42	X43	Y43	Z43	X44	Y44	Z44	X45	Y45	Z45	X46	Y46	Z46	X47	Y47	Z47	X48	Y48	Z48	X49	Y49	Z49	X50	Y50	Z50	X51	Y51	Z51	X52	Y52	Z52	X53	Y53	Z53	X54	Y54	Z54	X55	Y55	Z55	X56	Y56	Z56	X57	Y57	Z57	X58	Y58	Z58	X59	Y59	Z59	X60	Y60	Z60	X61	Y61	Z61	X62	Y62	Z62	X63	Y63	Z63	X64	Y64	Z64	X65	Y65	Z65	X66	Y66	Z66	X67	Y67	Z67	X68	Y68	Z68	X69	Y69	Z69	X70	Y70	Z70	X71	Y71	Z71	X72	Y72	Z72	X73	Y73	Z73	X74	Y74	Z74	

147	13.533	-509.92229	1086.20987	-165.86290	-406.54041	1069.82895	-314.52106	-257.83861	1050.12184	-131.29272	-425.86277	1416.56662	-144.63437	-323.65688	1480.96542	-112.29325	-511.00300	1588.01956	-217.25302	-338.07652	1564.52286	-187.25225	-439.81895	1415.90637	-314.32125	-435.71812	1099.59831	-375.35118	-402.36385	1121.63589	-418.74340	-354.67617	1102.89726	-369.76757	-424.26762	834.60968	-424.41837	-465.41561	843.37029	-431.35361	-483.13232	848.24677	-390.78033	-293.52760	1366.99570	57.30912	-231.07216	1050.19424	59.07554	-252.64875	1041.51985	4.84322	-298.18771	1063.47244	75.08769	-351.56200	813.65799	71.79022	-372.54761	828.03558	108.59777	-408.14739	849.68475	86.07536	-510.57541	912.15569	-316.38021	-284.51471	895.21507	-37.04718	-615.07595	418.09456	-279.97341	-572.39254	456.31916	-349.06666	-523.46977	413.36197	-248.62862	-341.77727	470.90977	-83.66552	-254.81062	495.38036	-151.88922	-376.48651	473.91106	-173.15207	-626.62056	146.44808	-330.76069	-556.19743	131.84596	-334.37031	-590.33024	139.16935	-393.36521	-275.04509	128.54300	-161.09339	-251.37842	131.26329	-226.55056	-327.95891	128.56203	-204.40380	-425.80551	1559.39972	-61.75823	-413.49091	1062.09335	-36.23299	-926.44173	1174.57542	599.31427	-1065.49004	1186.76758	495.47749	-901.36345	1616.76697	476.64562	-1004.64149	1654.36356	539.33491	-852.01202	1825.13016	391.00445	-948.83797	1803.67920	539.75277	-1022.20169	1788.53073	406.94298	-811.99547	1565.58411	607.48055	-785.54291	1195.24178	586.23753	-733.53447	1206.32080	627.62280	-798.74229	1190.40405	669.79362	-697.69791	922.56004	547.88429	-678.88260	939.63181	513.11207	-715.16579	950.32379	482.94350	-1142.37045	1555.60165	411.50913	-1145.29121	1184.41383	345.59711	-1113.55583	1163.89397	414.07234	-1082.38922	1193.89961	340.73864	-1081.83685	941.24695	297.77016	-1060.64262	961.20300	262.66380	-1019.81598	963.27423	287.36172	-814.49600	1037.22168	594.73145	-1088.05481	1032.76329	373.45501	-822.49100	556.38687	494.76952	-830.82001	560.45433	607.75013	-933.51875	548.81672	534.14791	-995.12856	469.42589	372.39471	-1084.95422	518.49426	421.79306	-998.75458	501.00418	485.56892	-832.54143	193.31980	556.52657	-908.25447	187.63159	540.45471	-882.66991	183.15071	622.29034	-1052.37183	162.59119	411.75037	-1073.29376	156.05703	488.64113	-989.26064	163.75269	447.64046	-978.11287	1192.69218	356.18008	-812.65289	1182.23839	474.22245 
148	13.550	-509.64180	1086.15761	-165.37619	-405.84137	1069.95850	-314.14177	-257.06322	1050.12733	-130.80560	-425.22091	1416.63528	-143.84480	-322.52731	1480.83771	-111.85935	-509.96265	1588.46573	-216.28878	-336.87016	1564.42276	-186.68846	-439.17881	1416.13632	-313.59350	-435.18639	1099.77585	-374.33434	-401.81782	1121.77208	-417.85751	-353.84701	1103.06458	-369.06437	-424.20128	834.72565	-423.10268	-465.37914	843.58688	-430.05077	-483.04302	848.57880	-389.36432	-293.07335	1366.79474	58.03900	-230.50066	1049.95094	59.22886	-251.84984	1041.45027	4.76572	-297.34619	1063.04031	74.97956	-350.24563	812.88139	70.92943	-370.83275	827.07184	107.65194	-406.77872	848.77838	85.18759	-509.82994	912.08321	-315.92993	-286.16276	894.67438	-34.89870	-614.61201	418.20038	-280.09056	-571.82011	456.44310	-349.17080	-523.04295	413.34766	-248.54912	-341.49895	470.85899	-83.48247	-254.52063	495.27603	-151.51340	-376.14544	473.89503	-172.92376	-626.52069	146.61050	-330.75794	-556.16970	131.87707	-334.32259	-590.19859	139.24857	-393.40981	-275.01516	128.51608	-161.06274	-251.32433	131.21860	-226.46355	-327.88254	128.57068	-204.37292	-423.70628	1559.19495	-60.97375	-413.23593	1062.08527	-35.91658	-926.87607	1174.65569	599.18991	-1065.16045	1186.72501	495.62618	-900.83572	1617.10175	477.49344	-1005.42702	1654.16702	538.27759	-850.38078	1826.49033	394.86557	-952.59041	1803.29163	539.71584	-1020.56870	1787.59048	404.13841	-812.92778	1565.85907	608.26775	-786.07292	1195.60516	587.24880	-734.11957	1206.56197	628.45867	-799.60892	1190.68314	670.57228	-697.70950	922.67082	549.42223	-678.53958	939.84520	514.71157	-714.81293	950.64400	484.37191	-1141.86897	1555.31891	410.05341	-1144.07578	1184.06799	344.40025	-1112.90726	1163.67653	413.10307	-1081.23596	1193.56110	340.16232	-1080.33203	940.86899	297.36240	-1059.09134	960.81490	262.12414	-1018.23936	962.86858	287.32092	-814.95216	1037.22733	595.45097	-1087.29248	1032.78397	372.65060	-822.63824	556.35262	495.35107	-831.33293	560.44518	608.18855	-933.77731	548.71513	534.20826	-994.76494	469.36489	372.64252	-1084.78691	518.49815	421.62521	-998.82721	501.00857	485.66990	-832.70325	193.30645	556.88396	-908.36327	187.55573	540.55824	-883.08846	183.08653	622.53464	-1052.25983	162.58383	411.70376	-1073.36357	156.06027	488.56068	-989.20647	163.76936	447.74395	-977.06566	1192.57172	355.87566	-812.27737	1182.15057	475.09731 
149	13.567	-509.40956	1086.12503	-164.87259	-404.99813	1070.07141	-313.62585	-256.60786	1050.14748	-130.19809	-424.64893	1416.62933	-143.16046	-321.99211	1480.76523	-111.03326	-509.14139	1589.11346	-215.19146	-336.29784	1564.32922	-185.84221	-438.67565	1416.40350	-312.85080	-435.00221	1100.02785	-373.56472	-401.68236	1122.00417	-417.04216	-353.62679	1103.21945	-368.38997	-424.90562	835.06729	-421.90807	-466.18515	843.96622	-428.67405	-483.61713	849.08890	-388.01422	-292.51404	1366.71310	58.52513	-229.30798	1049.80751	58.84030	-250.57106	1041.49155	4.26071	-295.98530	1062.52563	74.68498	-348.38795	812.04712	69.95330	-368.62236	825.96939	106.30030	-404.72496	847.64091	83.93164	-509.24515	912.11937	-315.48120	-285.67474	894.52652	-34.51009	-614.20952	418.34095	-280.18744	-571.26091	456.55418	-349.20216	-522.66956	413.41881	-248.51749	-341.17538	470.77904	-83.16999	-254.32098	495.18604	-151.21025	-375.86121	473.91560	-172.67111	-626.45184	146.74494	-330.82588	-556.08002	131.91381	-334.35539	-590.09968	139.30046	-393.43788	-275.03025	128.47635	-161.04141	-251.25578	131.21045	-226.44981	-327.86491	128.60184	-204.36060	-422.98290	1559.42795	-60.13152	-412.90615	1062.17247	-35.35904	-927.63428	1174.77295	599.64302	-1064.99374	1186.74393	495.99617	-900.39665	1617.52304	478.23257	-1005.98915	1653.91617	537.12456	-849.23294	1827.70111	398.20930	-955.81741	1803.01865	539.70207	-1019.12216	1786.84006	401.65203	-813.60550	1565.97992	608.82587	-786.44249	1195.78941	588.06396	-734.70139	1206.87660	629.54994	-800.65811	1190.93338	671.37978	-697.38831	922.91115	551.03935	-678.30132	940.15930	516.33415	-714.26643	950.81894	485.66757	-1141.25755	1555.18097	408.41324	-1142.89597	1183.86429	343.26714	-1112.22366	1163.51280	412.14844	-1080.02403	1193.30261	339.13773	-1078.91113	940.56358	296.90937	-1057.36839	960.33897	261.89785	-1016.86485	962.50351	287.13047	-815.54497	1037.88918	596.07433	-1086.44325	1032.76657	371.88656	-822.49367	556.39790	495.79266	-831.93947	560.37712	608.78517	-933.88474	548.67470	534.05754	-994.31763	469.23038	373.08708	-1084.62074	518.51452	421.47053	-998.80783	500.97385	485.73586	-832.77031	193.32005	557.02080	-908.40347	187.51688	540.46913	-883.41515	183.09423	622.57965	-1052.13524	162.57223	411.67671	-1073.39317	156.04754	488.49812	-989.15649	163.77020	447.89177	-976.03928	1192.48695	355.89287	-812.04552	1182.17491	475.73677 
150	13.583	-509.28776	1086.14433	-164.29195	-404.75498	1070.09789	-313.18777	-256.27748	1050.20348	-129.64743	-424.09424	1416.74484	-142.33934	-321.00662	1480.54932	-110.63951	-508.29105	1589.67651	-214.23471	-335.29472	1564.24255	-185.26407	-438.43498	1416.63986	-312.11426	-435.11196	1100.37109	-372.69863	-401.84731	1122.23961	-416.39706	-353.73066	1103.38692	-367.88609	-426.48293	835.33073	-420.65971	-467.54162	844.46762	-427.38949	-484.86458	849.82353	-386.56433	-291.32381	1366.28998	59.36983	-228.04098	1049.73465	58.23482	-249.15905	1041.63902	3.54935	-295.18105	1062.22649	74.39670	-345.71899	810.93964	68.54839	-365.68909	824.71603	104.96655	-401.93546	846.23787	82.49865	-508.89400	912.20390	-315.23087	-285.06023	894.58847	-34.23337	-613.93871	418.50929	-280.22568	-570.86018	456.62670	-349.22424	-522.41245	413.41404	-248.44126	-340.95963	470.71312	-82.86943	-254.20889	495.08469	-150.90004	-375.65586	473.92452	-172.52247	-626.44196	146.87366	-330.92426	-556.09051	131.92341	-334.38171	-590.01579	139.38055	-393.53775	-275.01038	128.44774	-161.01324	-251.22080	131.19812	-226.40745	-327.79499	128.58503	-204.34875	-422.05986	1559.56604	-59.14829	-412.56142	1062.13341	-34.91911	-928.26843	1174.90326	599.81159	-1064.83192	1186.93924	496.52424	-900.21576	1618.08701	478.97957	-1006.82175	1653.98392	536.38092	-848.27713	1828.61954	400.96107	-958.59238	1802.89993	539.44653	-1017.90550	1786.24130	399.52110	-814.64264	1566.10733	609.74640	-786.79039	1195.86082	588.83068	-735.70114	1207.01973	631.26888	-801.60423	1191.07048	672.13112	-697.46605	923.35419	552.44663	-678.01964	940.45227	517.96715	-713.82278	951.04996	487.17964	-1140.59441	1555.06805	406.85429	-1141.72981	1183.71216	342.01206	-1111.40488	1163.37158	411.11916	-1078.81607	1193.12546	338.22842	-1077.42607	940.32394	296.42765	-1055.62035	959.97337	261.69849	-1015.21881	962.30141	287.12328	-816.33224	1037.77939	597.37686	-1085.77667	1032.76886	371.27903	-822.25235	556.49284	495.99136	-832.50221	560.22072	609.02378	-933.75000	548.48621	533.43277	-993.98781	469.22630	373.24654	-1084.47800	518.56010	421.28799	-998.87154	500.96062	485.83065	-832.78374	193.32306	557.09515	-908.38943	187.53265	540.29861	-883.62617	183.09198	622.47677	-1051.98105	162.58253	411.63895	-1073.42552	156.07711	488.42461	-989.11919	163.77703	448.01380	-975.11276	1192.54120	355.79033	-811.85234	1182.57614	477.25513 
